<mxfile host="Electron" modified="2023-05-09T16:08:51.610Z" agent="Mozilla/5.0 (Macintosh; Intel Mac OS X 10_15_7) AppleWebKit/537.36 (KHTML, like Gecko) draw.io/21.2.8 Chrome/112.0.5615.165 Electron/24.2.0 Safari/537.36" etag="HlNTznvyLGIk8DstmnKp" version="21.2.8" type="device" pages="2">
  <diagram name="How-it-Work" id="c3A5GBgAs8Jyap0qg41B">
    <mxGraphModel dx="1604" dy="988" grid="1" gridSize="10" guides="1" tooltips="1" connect="1" arrows="1" fold="1" page="1" pageScale="1" pageWidth="850" pageHeight="1100" math="0" shadow="0">
      <root>
        <mxCell id="0" />
        <mxCell id="1" parent="0" />
        <mxCell id="g2GatpI702hafy2E-ycQ-15" value="Install from Private repository" style="swimlane;whiteSpace=wrap;html=1;" parent="1" vertex="1">
          <mxGeometry x="120" y="120" width="320" height="560" as="geometry" />
        </mxCell>
        <mxCell id="g2GatpI702hafy2E-ycQ-1" value="PyPI" style="shape=image;verticalLabelPosition=bottom;labelBackgroundColor=default;verticalAlign=top;aspect=fixed;imageAspect=0;image=data:image/svg+xml,PHN2ZyB4bWxucz0iaHR0cDovL3d3dy53My5vcmcvMjAwMC9zdmciIGhlaWdodD0iMTQ0cHgiIHdpZHRoPSIxNDRweCIgdmlld0JveD0iMCAwIDQ4IDQ4Ij48cGF0aCBkPSJNMjQuMDQ3LDVjLTEuNTU1LDAuMDA1LTIuNjMzLDAuMTQyLTMuOTM2LDAuMzY3Yy0zLjg0OCwwLjY3LTQuNTQ5LDIuMDc3LTQuNTQ5LDQuNjdWMTRoOXYySDE1LjIyaC00LjM1Yy0yLjYzNiwwLTQuOTQzLDEuMjQyLTUuNjc0LDQuMjE5Yy0wLjgyNiwzLjQxNy0wLjg2Myw1LjU1NywwLDkuMTI1QzUuODUxLDMyLjAwNSw3LjI5NCwzNCw5LjkzMSwzNGgzLjYzMnYtNS4xMDRjMC0yLjk2NiwyLjY4Ni01Ljg5Niw1Ljc2NC01Ljg5Nmg3LjIzNmMyLjUyMywwLDUtMS44NjIsNS00LjM3N3YtOC41ODZjMC0yLjQzOS0xLjc1OS00LjI2My00LjIxOC00LjY3MkMyNy40MDYsNS4zNTksMjUuNTg5LDQuOTk0LDI0LjA0Nyw1eiBNMTkuMDYzLDljMC44MjEsMCwxLjUsMC42NzcsMS41LDEuNTAyYzAsMC44MzMtMC42NzksMS40OTgtMS41LDEuNDk4Yy0wLjgzNywwLTEuNS0wLjY2NC0xLjUtMS40OThDMTcuNTYzLDkuNjgsMTguMjI2LDksMTkuMDYzLDl6IiBmaWxsPSIjMDI3N0JEIi8+PHBhdGggZD0iTTIzLjA3OCw0M2MxLjU1NS0wLjAwNSwyLjYzMy0wLjE0MiwzLjkzNi0wLjM2N2MzLjg0OC0wLjY3LDQuNTQ5LTIuMDc3LDQuNTQ5LTQuNjdWMzRoLTl2LTJoOS4zNDNoNC4zNWMyLjYzNiwwLDQuOTQzLTEuMjQyLDUuNjc0LTQuMjE5YzAuODI2LTMuNDE3LDAuODYzLTUuNTU3LDAtOS4xMjVDNDEuMjc0LDE1Ljk5NSwzOS44MzEsMTQsMzcuMTk0LDE0aC0zLjYzMnY1LjEwNGMwLDIuOTY2LTIuNjg2LDUuODk2LTUuNzY0LDUuODk2aC03LjIzNmMtMi41MjMsMC01LDEuODYyLTUsNC4zNzd2OC41ODZjMCwyLjQzOSwxLjc1OSw0LjI2Myw0LjIxOCw0LjY3MkMxOS43MTksNDIuNjQxLDIxLjUzNiw0My4wMDYsMjMuMDc4LDQzeiBNMjguMDYzLDM5Yy0wLjgyMSwwLTEuNS0wLjY3Ny0xLjUtMS41MDJjMC0wLjgzMywwLjY3OS0xLjQ5OCwxLjUtMS40OThjMC44MzcsMCwxLjUsMC42NjQsMS41LDEuNDk4QzI5LjU2MywzOC4zMiwyOC44OTksMzksMjguMDYzLDM5eiIgZmlsbD0iI0ZGQzEwNyIvPjwvc3ZnPg==;" parent="g2GatpI702hafy2E-ycQ-15" vertex="1">
          <mxGeometry x="120" y="240" width="80" height="80" as="geometry" />
        </mxCell>
        <mxCell id="g2GatpI702hafy2E-ycQ-2" value="AWS CodeArtifact" style="sketch=0;points=[[0,0,0],[0.25,0,0],[0.5,0,0],[0.75,0,0],[1,0,0],[0,1,0],[0.25,1,0],[0.5,1,0],[0.75,1,0],[1,1,0],[0,0.25,0],[0,0.5,0],[0,0.75,0],[1,0.25,0],[1,0.5,0],[1,0.75,0]];outlineConnect=0;fontColor=#232F3E;gradientColor=#4D72F3;gradientDirection=north;fillColor=#3334B9;strokeColor=#ffffff;dashed=0;verticalLabelPosition=bottom;verticalAlign=top;align=center;html=1;fontSize=12;fontStyle=0;aspect=fixed;shape=mxgraph.aws4.resourceIcon;resIcon=mxgraph.aws4.codeartifact;" parent="g2GatpI702hafy2E-ycQ-15" vertex="1">
          <mxGeometry x="120" y="400" width="80" height="80" as="geometry" />
        </mxCell>
        <mxCell id="g2GatpI702hafy2E-ycQ-6" style="edgeStyle=orthogonalEdgeStyle;rounded=0;orthogonalLoop=1;jettySize=auto;html=1;exitX=0.5;exitY=1;exitDx=0;exitDy=0;entryX=0.5;entryY=0;entryDx=0;entryDy=0;entryPerimeter=0;" parent="g2GatpI702hafy2E-ycQ-15" source="g2GatpI702hafy2E-ycQ-1" target="g2GatpI702hafy2E-ycQ-2" edge="1">
          <mxGeometry relative="1" as="geometry" />
        </mxCell>
        <mxCell id="g2GatpI702hafy2E-ycQ-5" style="edgeStyle=orthogonalEdgeStyle;rounded=0;orthogonalLoop=1;jettySize=auto;html=1;entryX=0.5;entryY=0;entryDx=0;entryDy=0;" parent="g2GatpI702hafy2E-ycQ-15" source="g2GatpI702hafy2E-ycQ-4" target="g2GatpI702hafy2E-ycQ-1" edge="1">
          <mxGeometry relative="1" as="geometry" />
        </mxCell>
        <mxCell id="g2GatpI702hafy2E-ycQ-4" value="&lt;pre style=&quot;border-color: var(--border-color); text-align: left;&quot;&gt;pip install {package}&lt;br&gt;&lt;span style=&quot;border-color: var(--border-color); background-color: initial;&quot;&gt;poetry add {package}&lt;/span&gt;&lt;/pre&gt;" style="rounded=1;whiteSpace=wrap;html=1;absoluteArcSize=1;arcSize=14;strokeWidth=2;fillColor=#dae8fc;strokeColor=#6c8ebf;" parent="g2GatpI702hafy2E-ycQ-15" vertex="1">
          <mxGeometry x="40" y="80" width="240" height="80" as="geometry" />
        </mxCell>
        <mxCell id="g2GatpI702hafy2E-ycQ-16" value="Publish to Private repository" style="swimlane;whiteSpace=wrap;html=1;" parent="1" vertex="1">
          <mxGeometry x="520" y="120" width="480" height="560" as="geometry" />
        </mxCell>
        <mxCell id="g2GatpI702hafy2E-ycQ-7" value="&lt;pre style=&quot;border-color: var(--border-color); text-align: left;&quot;&gt;twine upload {package} -- repository codeartifact&lt;/pre&gt;" style="rounded=1;whiteSpace=wrap;html=1;absoluteArcSize=1;arcSize=14;strokeWidth=2;fillColor=#dae8fc;strokeColor=#6c8ebf;" parent="g2GatpI702hafy2E-ycQ-16" vertex="1">
          <mxGeometry x="40" y="80" width="400" height="80" as="geometry" />
        </mxCell>
        <mxCell id="g2GatpI702hafy2E-ycQ-8" value="" style="sketch=0;points=[[0,0,0],[0.25,0,0],[0.5,0,0],[0.75,0,0],[1,0,0],[0,1,0],[0.25,1,0],[0.5,1,0],[0.75,1,0],[1,1,0],[0,0.25,0],[0,0.5,0],[0,0.75,0],[1,0.25,0],[1,0.5,0],[1,0.75,0]];outlineConnect=0;fontColor=#232F3E;gradientColor=#4D72F3;gradientDirection=north;fillColor=#3334B9;strokeColor=#ffffff;dashed=0;verticalLabelPosition=bottom;verticalAlign=top;align=center;html=1;fontSize=12;fontStyle=0;aspect=fixed;shape=mxgraph.aws4.resourceIcon;resIcon=mxgraph.aws4.codeartifact;" parent="g2GatpI702hafy2E-ycQ-16" vertex="1">
          <mxGeometry x="200" y="240" width="80" height="80" as="geometry" />
        </mxCell>
        <mxCell id="g2GatpI702hafy2E-ycQ-9" style="edgeStyle=orthogonalEdgeStyle;rounded=0;orthogonalLoop=1;jettySize=auto;html=1;exitX=0.5;exitY=1;exitDx=0;exitDy=0;entryX=0.5;entryY=0;entryDx=0;entryDy=0;entryPerimeter=0;" parent="g2GatpI702hafy2E-ycQ-16" source="g2GatpI702hafy2E-ycQ-7" target="g2GatpI702hafy2E-ycQ-8" edge="1">
          <mxGeometry relative="1" as="geometry" />
        </mxCell>
        <mxCell id="g2GatpI702hafy2E-ycQ-19" value="Authentication" style="swimlane;whiteSpace=wrap;html=1;" parent="1" vertex="1">
          <mxGeometry x="120" y="760" width="880" height="240" as="geometry" />
        </mxCell>
        <mxCell id="g2GatpI702hafy2E-ycQ-17" value="Python &lt;br&gt;Package Manager" style="html=1;verticalLabelPosition=bottom;align=center;labelBackgroundColor=#ffffff;verticalAlign=top;strokeWidth=2;strokeColor=#4584b6;shadow=0;dashed=0;shape=mxgraph.ios7.icons.tools;pointerEvents=1" parent="g2GatpI702hafy2E-ycQ-19" vertex="1">
          <mxGeometry x="560" y="80" width="80" height="80" as="geometry" />
        </mxCell>
        <mxCell id="g2GatpI702hafy2E-ycQ-20" value="Automation&lt;br&gt;Script" style="verticalLabelPosition=bottom;html=1;verticalAlign=top;align=center;strokeColor=none;fillColor=#000000;shape=mxgraph.azure.script_file;pointerEvents=1;" parent="g2GatpI702hafy2E-ycQ-19" vertex="1">
          <mxGeometry x="80" y="80" width="80" height="80" as="geometry" />
        </mxCell>
        <mxCell id="g2GatpI702hafy2E-ycQ-32" style="edgeStyle=orthogonalEdgeStyle;rounded=0;orthogonalLoop=1;jettySize=auto;html=1;exitX=1;exitY=0.5;exitDx=0;exitDy=0;entryX=-0.002;entryY=0.498;entryDx=0;entryDy=0;entryPerimeter=0;" parent="g2GatpI702hafy2E-ycQ-19" source="g2GatpI702hafy2E-ycQ-27" target="g2GatpI702hafy2E-ycQ-17" edge="1">
          <mxGeometry relative="1" as="geometry" />
        </mxCell>
        <mxCell id="g2GatpI702hafy2E-ycQ-27" value="Environment&lt;br&gt;Variable" style="whiteSpace=wrap;html=1;aspect=fixed;" parent="g2GatpI702hafy2E-ycQ-19" vertex="1">
          <mxGeometry x="400" y="80" width="80" height="80" as="geometry" />
        </mxCell>
        <mxCell id="g2GatpI702hafy2E-ycQ-33" value="AWS CodeArtifact" style="sketch=0;points=[[0,0,0],[0.25,0,0],[0.5,0,0],[0.75,0,0],[1,0,0],[0,1,0],[0.25,1,0],[0.5,1,0],[0.75,1,0],[1,1,0],[0,0.25,0],[0,0.5,0],[0,0.75,0],[1,0.25,0],[1,0.5,0],[1,0.75,0]];outlineConnect=0;fontColor=#232F3E;gradientColor=#4D72F3;gradientDirection=north;fillColor=#3334B9;strokeColor=#ffffff;dashed=0;verticalLabelPosition=bottom;verticalAlign=top;align=center;html=1;fontSize=12;fontStyle=0;aspect=fixed;shape=mxgraph.aws4.resourceIcon;resIcon=mxgraph.aws4.codeartifact;" parent="g2GatpI702hafy2E-ycQ-19" vertex="1">
          <mxGeometry x="720" y="80" width="80" height="80" as="geometry" />
        </mxCell>
        <mxCell id="g2GatpI702hafy2E-ycQ-35" style="edgeStyle=orthogonalEdgeStyle;rounded=0;orthogonalLoop=1;jettySize=auto;html=1;entryX=0;entryY=0.5;entryDx=0;entryDy=0;entryPerimeter=0;" parent="g2GatpI702hafy2E-ycQ-19" source="g2GatpI702hafy2E-ycQ-17" target="g2GatpI702hafy2E-ycQ-33" edge="1">
          <mxGeometry relative="1" as="geometry" />
        </mxCell>
        <mxCell id="g2GatpI702hafy2E-ycQ-34" value="" style="sketch=0;points=[[0,0,0],[0.25,0,0],[0.5,0,0],[0.75,0,0],[1,0,0],[0,1,0],[0.25,1,0],[0.5,1,0],[0.75,1,0],[1,1,0],[0,0.25,0],[0,0.5,0],[0,0.75,0],[1,0.25,0],[1,0.5,0],[1,0.75,0]];outlineConnect=0;fontColor=#232F3E;gradientColor=#F54749;gradientDirection=north;fillColor=#C7131F;strokeColor=#ffffff;dashed=0;verticalLabelPosition=bottom;verticalAlign=top;align=center;html=1;fontSize=12;fontStyle=0;aspect=fixed;shape=mxgraph.aws4.resourceIcon;resIcon=mxgraph.aws4.identity_and_access_management;" parent="g2GatpI702hafy2E-ycQ-19" vertex="1">
          <mxGeometry x="240" y="80" width="80" height="80" as="geometry" />
        </mxCell>
        <mxCell id="g2GatpI702hafy2E-ycQ-30" value="Auth" style="edgeStyle=orthogonalEdgeStyle;rounded=0;orthogonalLoop=1;jettySize=auto;html=1;exitX=1;exitY=0.5;exitDx=0;exitDy=0;exitPerimeter=0;entryX=0;entryY=0.5;entryDx=0;entryDy=0;entryPerimeter=0;" parent="g2GatpI702hafy2E-ycQ-19" source="g2GatpI702hafy2E-ycQ-20" target="g2GatpI702hafy2E-ycQ-34" edge="1">
          <mxGeometry relative="1" as="geometry">
            <mxPoint x="180" y="120" as="targetPoint" />
          </mxGeometry>
        </mxCell>
        <mxCell id="g2GatpI702hafy2E-ycQ-31" value="Token" style="edgeStyle=orthogonalEdgeStyle;rounded=0;orthogonalLoop=1;jettySize=auto;html=1;entryX=0;entryY=0.5;entryDx=0;entryDy=0;exitX=1;exitY=0.5;exitDx=0;exitDy=0;exitPerimeter=0;" parent="g2GatpI702hafy2E-ycQ-19" source="g2GatpI702hafy2E-ycQ-34" target="g2GatpI702hafy2E-ycQ-27" edge="1">
          <mxGeometry relative="1" as="geometry">
            <mxPoint x="380" y="120" as="sourcePoint" />
          </mxGeometry>
        </mxCell>
        <mxCell id="g2GatpI702hafy2E-ycQ-36" value="" style="whiteSpace=wrap;html=1;aspect=fixed;fillColor=#fad9d5;strokeColor=#ae4132;opacity=50;" parent="1" vertex="1">
          <mxGeometry width="80" height="80" as="geometry" />
        </mxCell>
        <mxCell id="vpjdOIo-1uPtVdd_6TiR-7" value="Tools" style="swimlane;whiteSpace=wrap;html=1;" parent="1" vertex="1">
          <mxGeometry x="1080" y="120" width="240" height="560" as="geometry" />
        </mxCell>
        <mxCell id="vpjdOIo-1uPtVdd_6TiR-4" value="Shared Library&lt;br style=&quot;border-color: var(--border-color); color: rgb(35, 47, 62);&quot;&gt;&lt;span style=&quot;color: rgb(35, 47, 62);&quot;&gt;Project Template&lt;/span&gt;" style="verticalLabelPosition=bottom;html=1;verticalAlign=top;align=center;strokeColor=none;fillColor=#FF8000;shape=mxgraph.azure.git_repository;" parent="vpjdOIo-1uPtVdd_6TiR-7" vertex="1">
          <mxGeometry x="80" y="80" width="80" height="80" as="geometry" />
        </mxCell>
        <mxCell id="vpjdOIo-1uPtVdd_6TiR-5" value="Application&lt;br style=&quot;border-color: var(--border-color); color: rgb(35, 47, 62);&quot;&gt;&lt;span style=&quot;color: rgb(35, 47, 62);&quot;&gt;Project Template&lt;/span&gt;" style="verticalLabelPosition=bottom;html=1;verticalAlign=top;align=center;strokeColor=none;fillColor=#FF8000;shape=mxgraph.azure.git_repository;" parent="vpjdOIo-1uPtVdd_6TiR-7" vertex="1">
          <mxGeometry x="80" y="240" width="80" height="80" as="geometry" />
        </mxCell>
        <mxCell id="vpjdOIo-1uPtVdd_6TiR-6" value="CI/CD Automation" style="verticalLabelPosition=bottom;html=1;verticalAlign=top;align=center;strokeColor=none;fillColor=#FF8000;shape=mxgraph.azure.git_repository;" parent="vpjdOIo-1uPtVdd_6TiR-7" vertex="1">
          <mxGeometry x="80" y="400" width="80" height="80" as="geometry" />
        </mxCell>
        <mxCell id="EJ8RLaH9uMjsW6H8Zzfi-1" value="&lt;h1&gt;Links&lt;/h1&gt;&lt;p&gt;&lt;/p&gt;&lt;ul&gt;&lt;li&gt;&lt;a href=&quot;https://aws.amazon.com/codeartifact/&quot;&gt;AWS CodeArtifact&lt;/a&gt;&lt;/li&gt;&lt;li&gt;&lt;a href=&quot;https://docs.aws.amazon.com/codeartifact/latest/ug/python-configure-twine.html&quot;&gt;Python + CodeArtifact&lt;/a&gt;&lt;/li&gt;&lt;li&gt;&lt;a href=&quot;https://python-poetry.org/docs/repositories/&quot;&gt;Poetry + CodeArtifact&lt;/a&gt;&lt;/li&gt;&lt;li&gt;&lt;a href=&quot;https://github.com/MacHu-GWU/cookiecutter-aws-codeartifact-python-project&quot;&gt;cookiecutter-aws-codeartifact-python-project&lt;/a&gt;&lt;/li&gt;&lt;/ul&gt;&lt;p&gt;&lt;/p&gt;" style="text;html=1;strokeColor=default;fillColor=none;spacing=5;spacingTop=-20;whiteSpace=wrap;overflow=hidden;rounded=0;" vertex="1" parent="1">
          <mxGeometry x="1080" y="760" width="240" height="240" as="geometry" />
        </mxCell>
      </root>
    </mxGraphModel>
  </diagram>
  <diagram id="pduOtlzzX6bAnJsAVxWI" name="Project-Template">
    <mxGraphModel dx="940" dy="579" grid="1" gridSize="10" guides="1" tooltips="1" connect="1" arrows="1" fold="1" page="1" pageScale="1" pageWidth="850" pageHeight="1100" math="0" shadow="0">
      <root>
        <mxCell id="0" />
        <mxCell id="1" parent="0" />
      </root>
    </mxGraphModel>
  </diagram>
</mxfile>
